<svg width="534" height="667" viewBox="0 0 534 667" fill="none" xmlns="http://www.w3.org/2000/svg">
<path fill-rule="evenodd" clip-rule="evenodd" d="M300.333 402.868V300.008C300.333 281.598 285.41 266.675 267 266.675C248.59 266.675 233.667 281.598 233.667 300.008V402.868L207.237 376.438C194.219 363.422 173.114 363.422 160.096 376.438C147.079 389.455 147.079 410.562 160.096 423.578L226.763 490.245C248.987 512.468 285.013 512.468 307.237 490.245L373.903 423.578C386.92 410.562 386.92 389.455 373.903 376.438C360.887 363.422 339.78 363.422 326.763 376.438L300.333 402.868ZM283.067 0.00459587C305.693 -0.0300708 325.773 -0.0607366 344.32 7.6216C362.867 15.3039 377.047 29.5253 393.02 45.5496C424.673 77.2999 456.377 109.003 488.127 140.656C504.15 156.631 518.373 170.809 526.053 189.355C533.737 207.902 533.707 227.984 533.67 250.611C533.543 334.475 533.667 418.338 533.667 502.205C533.67 531.755 533.67 557.215 530.93 577.602C527.99 599.452 521.367 620.398 504.377 637.388C487.39 654.375 466.443 661.002 444.593 663.938C424.203 666.678 398.743 666.678 369.193 666.675H164.807C135.257 666.678 109.796 666.678 89.407 663.938C67.5567 661.002 46.6117 654.375 29.6227 637.388C12.634 620.398 6.00933 599.452 3.07167 577.602C0.330333 557.215 0.331667 531.755 0.333334 502.205L0.333667 166.676C0.333667 165.942 0.333334 165.211 0.333334 164.482C0.331667 134.932 0.330333 109.472 3.07167 89.0829C6.00933 67.2326 12.634 46.2876 29.623 29.2989C46.6117 12.3099 67.5567 5.68526 89.407 2.7476C109.796 0.0062642 135.256 0.00759823 164.806 0.0092649C204.227 0.0115982 243.647 0.0652625 283.067 0.00459587Z" fill="black"/>
</svg>
