<svg width="640" height="640" viewBox="0 0 640 640" fill="none" xmlns="http://www.w3.org/2000/svg">
<g clip-path="url(#clip0_68_76)">
<rect width="640" height="640" fill="white"/>
<g clip-path="url(#clip1_68_76)">
<rect width="42" height="256" transform="matrix(1 0 -0.511893 0.859049 34.2992 420.583)" fill="black"/>
<rect width="42" height="256" transform="matrix(1 0 -0.511893 0.859049 100.344 420.583)" fill="black"/>
<rect width="42" height="256" transform="matrix(1 0 -0.511893 0.859049 166.388 420.583)" fill="black"/>
<rect width="42" height="256" transform="matrix(1 0 -0.511893 0.859049 232.433 420.583)" fill="black"/>
<path d="M298.478 420.583H340.478L209.433 640.5H167.433L298.478 420.583Z" fill="black"/>
<rect width="42" height="256" transform="matrix(1 0 -0.511893 0.859049 364.522 420.583)" fill="black"/>
<rect width="42" height="256" transform="matrix(1 0 -0.511893 0.859049 430.567 420.583)" fill="black"/>
<rect width="42" height="256" transform="matrix(1 0 -0.511893 0.859049 496.612 420.583)" fill="black"/>
<rect width="42" height="256" transform="matrix(1 0 -0.511893 0.859049 562.656 420.583)" fill="black"/>
<rect width="42" height="256" transform="matrix(1 0 -0.511893 0.859049 628.701 420.583)" fill="black"/>
<rect width="42" height="256" transform="matrix(1 0 -0.511893 0.859049 694.745 420.583)" fill="black"/>
</g>
<rect x="41.5" y="42" width="32" height="32" fill="black"/>
<rect x="9.5" y="10" width="32" height="32" fill="black"/>
<path d="M625 253.004C625 253.664 624.568 254.132 623.704 254.408L602.608 261.068C602.152 261.212 601.696 261.146 601.24 260.87C600.784 260.582 600.556 260.168 600.556 259.628C600.556 259.34 600.652 259.064 600.844 258.8C601.024 258.536 601.312 258.344 601.708 258.224L620.392 252.356V253.148L601.888 247.568C601.456 247.436 601.132 247.214 600.916 246.902C600.7 246.578 600.592 246.248 600.592 245.912C600.592 245.552 600.7 245.204 600.916 244.868C601.132 244.532 601.456 244.304 601.888 244.184L620.392 238.604V239.396L601.708 233.528C601.312 233.396 601.03 233.21 600.862 232.97C600.682 232.718 600.592 232.448 600.592 232.16C600.592 231.632 600.796 231.212 601.204 230.9C601.612 230.588 602.08 230.516 602.608 230.684L623.704 237.344C624.568 237.632 625 238.16 625 238.928V239C625 239.804 624.568 240.332 623.704 240.584L604.948 246.38V245.588L623.704 251.42C624.136 251.54 624.46 251.72 624.676 251.96C624.892 252.188 625 252.536 625 253.004ZM625 216.267C625 219.015 624.346 221.049 623.038 222.369C621.718 223.677 619.684 224.331 616.936 224.331H608.62C605.848 224.331 603.814 223.671 602.518 222.351C601.21 221.031 600.568 219.003 600.592 216.267V211.947C600.592 209.187 601.246 207.153 602.554 205.845C603.862 204.537 605.896 203.883 608.656 203.883H616.936C619.684 203.883 621.718 204.537 623.038 205.845C624.346 207.153 625 209.187 625 211.947V216.267ZM621.976 216.267V211.947C621.976 210.663 621.826 209.655 621.526 208.923C621.214 208.191 620.692 207.675 619.96 207.375C619.228 207.063 618.22 206.907 616.936 206.907H608.656C607.384 206.907 606.382 207.063 605.65 207.375C604.918 207.675 604.396 208.191 604.084 208.923C603.772 209.655 603.616 210.663 603.616 211.947V216.267C603.604 217.539 603.748 218.541 604.048 219.273C604.348 220.005 604.864 220.527 605.596 220.839C606.328 221.151 607.336 221.307 608.62 221.307H616.936C618.22 221.307 619.228 221.157 619.96 220.857C620.692 220.545 621.214 220.023 621.526 219.291C621.826 218.559 621.976 217.551 621.976 216.267ZM625.072 178.34C625.324 178.736 625.402 179.114 625.306 179.474C625.21 179.834 624.964 180.14 624.568 180.392L615.28 185.972V191.012H623.488C624.496 191.012 625 191.516 625 192.524C625 193.532 624.496 194.036 623.488 194.036H602.104C601.096 194.036 600.592 193.532 600.592 192.524V184.1C600.592 181.904 601.18 180.224 602.356 179.06C603.52 177.884 605.2 177.296 607.396 177.296H608.476C610.384 177.296 611.908 177.74 613.048 178.628C614.176 179.516 614.878 180.8 615.154 182.48L623.02 177.764C623.86 177.308 624.544 177.5 625.072 178.34ZM612.256 191.012V184.1C612.256 182.732 611.968 181.76 611.392 181.184C610.816 180.608 609.844 180.32 608.476 180.32H607.396C606.04 180.32 605.074 180.608 604.498 181.184C603.91 181.76 603.616 182.732 603.616 184.1V191.012H612.256ZM625 166.784C625 167.792 624.496 168.296 623.488 168.296H602.104C601.096 168.296 600.592 167.792 600.592 166.784C600.592 166.124 600.916 165.572 601.564 165.128L614.344 156.632L614.452 157.28L601.564 148.712C600.916 148.304 600.592 147.692 600.592 146.876C600.592 146.06 601.096 145.652 602.104 145.652H623.488C624.496 145.652 625 146.156 625 147.164C625 148.172 624.496 148.676 623.488 148.676H605.128L605.452 147.74L616.576 155.3C617.224 155.744 617.548 156.356 617.548 157.136C617.548 157.676 617.224 158.168 616.576 158.612L605.452 166.172L605.704 165.272H623.488C624.496 165.272 625 165.776 625 166.784ZM625 119.646C625 120.606 624.52 121.086 623.56 121.086H622.66C621.724 121.086 621.256 120.606 621.256 119.646V118.782C621.256 117.87 621.724 117.414 622.66 117.414H623.56C624.52 117.414 625 117.87 625 118.782V119.646ZM624.964 99.9353C624.964 102.683 624.31 104.717 623.002 106.037C621.682 107.345 619.648 107.999 616.9 107.999H608.584C605.812 107.999 603.772 107.345 602.464 106.037C601.156 104.717 600.52 102.683 600.556 99.9353V97.7753C600.556 95.0153 601.21 92.9813 602.518 91.6733C603.814 90.3653 605.848 89.7113 608.62 89.7113H616.9C619.648 89.7113 621.682 90.3653 623.002 91.6733C624.31 92.9813 624.964 95.0153 624.964 97.7753V99.9353ZM621.94 99.9353V97.7753C621.94 96.4913 621.784 95.4833 621.472 94.7513C621.16 94.0193 620.638 93.5033 619.906 93.2033C619.174 92.8913 618.172 92.7353 616.9 92.7353H608.62C607.336 92.7353 606.328 92.8913 605.596 93.2033C604.864 93.5033 604.348 94.0193 604.048 94.7513C603.736 95.4833 603.58 96.4913 603.58 97.7753V99.9353C603.556 101.207 603.694 102.209 603.994 102.941C604.282 103.673 604.798 104.195 605.542 104.507C606.274 104.819 607.288 104.975 608.584 104.975H616.9C618.172 104.975 619.174 104.825 619.906 104.525C620.638 104.213 621.16 103.691 621.472 102.959C621.784 102.227 621.94 101.219 621.94 99.9353ZM614.524 99.2873C614.524 100.247 614.044 100.727 613.084 100.727H612.184C611.248 100.727 610.78 100.247 610.78 99.2873V98.4233C610.78 97.5113 611.248 97.0553 612.184 97.0553H613.084C614.044 97.0553 614.524 97.5113 614.524 98.4233V99.2873ZM600.592 69.386C600.592 66.986 601.162 65.216 602.302 64.076C603.442 62.936 605.2 62.366 607.576 62.366H618.34C620.584 62.366 622.258 62.912 623.362 64.004C624.454 65.096 625 66.77 625 69.026V73.49C625 75.446 624.586 76.97 623.758 78.062C622.918 79.142 621.652 79.802 619.96 80.042C619.432 80.114 619.036 80.018 618.772 79.754C618.508 79.49 618.376 79.106 618.376 78.602C618.376 77.69 618.868 77.162 619.852 77.018C620.656 76.874 621.214 76.532 621.526 75.992C621.826 75.452 621.976 74.618 621.976 73.49V69.026C621.976 67.598 621.724 66.638 621.22 66.146C620.704 65.642 619.744 65.39 618.34 65.39H615.352C616.48 66.326 617.044 67.658 617.044 69.386V73.13C617.044 75.506 616.468 77.27 615.316 78.422C614.164 79.574 612.4 80.15 610.024 80.15H607.612C605.212 80.15 603.442 79.574 602.302 78.422C601.162 77.27 600.592 75.506 600.592 73.13V69.386ZM603.616 69.386V73.13C603.616 74.678 603.898 75.734 604.462 76.298C605.026 76.85 606.076 77.126 607.612 77.126H610.024C611.572 77.126 612.628 76.844 613.192 76.28C613.744 75.704 614.02 74.654 614.02 73.13V69.386C614.02 67.838 613.738 66.788 613.174 66.236C612.61 65.672 611.572 65.39 610.06 65.39H607.576C606.04 65.39 604.996 65.672 604.444 66.236C603.892 66.788 603.616 67.838 603.616 69.386ZM625 39.0048V52.4688C625 53.5008 624.496 54.0168 623.488 54.0168C621.88 54.0168 620.512 53.7648 619.384 53.2608C618.244 52.7448 617.284 52.0908 616.504 51.2988C615.712 50.4948 615.046 49.6428 614.506 48.7428C613.954 47.8428 613.456 47.0088 613.012 46.2408C612.256 44.9088 611.602 43.7988 611.05 42.9108C610.498 42.0108 609.934 41.3388 609.358 40.8948C608.782 40.4508 608.08 40.2288 607.252 40.2288C605.824 40.2288 604.864 40.4868 604.372 41.0028C603.868 41.5068 603.616 42.4608 603.616 43.8648V47.7168C603.616 48.8448 603.766 49.6788 604.066 50.2188C604.366 50.7588 604.924 51.1008 605.74 51.2448C606.22 51.3288 606.586 51.4908 606.838 51.7308C607.09 51.9708 607.216 52.3368 607.216 52.8288C607.216 53.3328 607.084 53.7168 606.82 53.9808C606.544 54.2448 606.148 54.3528 605.632 54.3048C603.94 54.0528 602.68 53.3868 601.852 52.3068C601.012 51.2268 600.592 49.6968 600.592 47.7168V43.8648C600.592 41.6088 601.138 39.9348 602.23 38.8428C603.322 37.7508 604.996 37.2048 607.252 37.2048C608.692 37.2048 609.898 37.5588 610.87 38.2668C611.83 38.9748 612.682 39.9048 613.426 41.0568C614.158 42.2088 614.896 43.4448 615.64 44.7648C616.192 45.7248 616.744 46.6368 617.296 47.5008C617.848 48.3528 618.49 49.0848 619.222 49.6968C619.954 50.2968 620.872 50.6928 621.976 50.8848V39.0048C621.976 37.9968 622.48 37.4928 623.488 37.4928C624.496 37.4928 625 37.9968 625 39.0048Z" fill="black"/>
</g>
<defs>
<clipPath id="clip0_68_76">
<rect width="640" height="640" fill="white"/>
</clipPath>
<clipPath id="clip1_68_76">
<rect width="833.491" height="219.917" fill="white" transform="translate(-96.7454 420.583)"/>
</clipPath>
</defs>
</svg>
