<svg width="71" height="40" viewBox="0 0 71 40" fill="none" xmlns="http://www.w3.org/2000/svg">
<path d="M38.148 39H0.42V0.551997H38.148V39ZM34.308 35.064V4.44H4.356V35.064H34.308ZM33.732 19.8C33.732 23.896 32.324 27.416 29.508 30.36C26.724 33.304 23.284 34.776 19.188 34.776C15.092 34.776 11.636 33.32 8.82 30.408C6.036 27.464 4.644 23.928 4.644 19.8C4.644 15.704 6.036 12.2 8.82 9.288C11.636 6.344 15.092 4.872 19.188 4.872C23.284 4.872 26.724 6.344 29.508 9.288C32.324 12.232 33.732 15.736 33.732 19.8ZM30.42 19.8C30.42 16.728 29.316 14.104 27.108 11.928C24.932 9.752 22.308 8.664 19.236 8.664C16.164 8.664 13.524 9.752 11.316 11.928C9.14 14.104 8.052 16.728 8.052 19.8C8.052 22.904 9.14 25.544 11.316 27.72C13.492 29.896 16.132 30.984 19.236 30.984C22.308 30.984 24.932 29.896 27.108 27.72C29.316 25.512 30.42 22.872 30.42 19.8ZM43.5341 36.408C43.5341 35.224 43.8221 34.392 44.3981 33.912C44.9741 33.432 45.6621 33.192 46.4621 33.192C47.2941 33.192 47.9981 33.432 48.5741 33.912C49.1821 34.392 49.4861 35.224 49.4861 36.408C49.4861 37.56 49.1821 38.392 48.5741 38.904C47.9981 39.416 47.2941 39.672 46.4621 39.672C45.6621 39.672 44.9741 39.416 44.3981 38.904C43.8221 38.392 43.5341 37.56 43.5341 36.408ZM70.2979 4.728L57.5299 39H53.4019L66.1699 4.728H70.2979Z" fill="black"/>
</svg>
